# This file uses centimeters as units for non-parametric coordinates.

mtllib OjoSimple.mtl
g default
v 0.403992 3.552585 -0.409361
v 0.392662 3.364764 -0.778651
v 0.375015 3.072226 -1.071721
v 0.352779 2.703606 -1.259884
v 0.328130 2.294987 -1.324720
v 0.303482 1.886369 -1.259884
v 0.281245 1.517749 -1.071721
v 0.263599 1.225211 -0.778651
v 0.252269 1.037390 -0.409361
v 0.248365 0.972671 0.000000
v 0.252269 1.037390 0.409361
v 0.263599 1.225211 0.778651
v 0.281246 1.517750 1.071721
v 0.375015 3.072225 1.071721
v 0.392662 3.364764 0.778651
v 0.403992 3.552585 0.409361
v 0.407896 3.617303 0.000000
v -0.252269 3.592173 -0.409361
v -0.263599 3.404351 -0.778651
v -0.281245 3.111813 -1.071721
v -0.303482 2.743193 -1.259884
v -0.328130 2.334575 -1.324720
v -0.352779 1.925956 -1.259884
v -0.375015 1.557337 -1.071721
v -0.392662 1.264798 -0.778651
v -0.403992 1.076977 -0.409361
v -0.407896 1.012258 0.000000
v -0.403992 1.076977 0.409361
v -0.392662 1.264798 0.778651
v -0.375015 1.557337 1.071721
v -0.281246 3.111812 1.071721
v -0.263599 3.404351 0.778651
v -0.252269 3.592172 0.409361
v -0.248365 3.656891 0.000000
v 0.328130 2.294987 0.000000
v -0.328130 2.334575 0.000000
vt 0.112889 0.779135
vt 0.131753 0.738156
vt 0.196757 0.768079
vt 0.177893 0.809058
vt 0.150617 0.697177
vt 0.215621 0.727100
vt 0.094025 0.820114
vt 0.159029 0.850037
vt 0.075161 0.861093
vt 0.140165 0.891016
vt 0.056297 0.902072
vt 0.121301 0.931995
vt 0.037433 0.943051
vt 0.102437 0.972974
vt 0.244936 0.492282
vt 0.263800 0.451303
vt 0.328804 0.481226
vt 0.309940 0.522205
vt 0.282664 0.410324
vt 0.347668 0.440247
vt 0.226072 0.533261
vt 0.291076 0.563184
vt 0.301528 0.369345
vt 0.366532 0.399268
vt 0.320392 0.328366
vt 0.385396 0.358289
vt 0.339255 0.287387
vt 0.404259 0.317310
vt 0.042796 0.250243
vt 0.061660 0.209264
vt 0.181594 0.289304
vt 0.092264 0.176120
vt 0.037519 0.295045
vt 0.131612 0.154055
vt 0.046345 0.339286
vt 0.175853 0.145229
vt 0.068409 0.378634
vt 0.220655 0.150507
vt 0.101553 0.409238
vt 0.142533 0.428102
vt 0.187335 0.433379
vt 0.231576 0.424554
vt 0.270924 0.402489
vt 0.325669 0.283563
vt 0.644127 0.477391
vt 0.625263 0.518370
vt 0.505329 0.438329
vt 0.594659 0.551514
vt 0.649404 0.432588
vt 0.555311 0.573579
vt 0.640579 0.388348
vt 0.511071 0.582404
vt 0.618514 0.349000
vt 0.466268 0.577127
vt 0.585370 0.318396
vt 0.425289 0.558263
vt 0.392145 0.527659
vt 0.370080 0.488311
vt 0.361254 0.444071
vt 0.415999 0.325145
vt 0.169481 0.656198
vt 0.234485 0.686121
vt 0.188344 0.615219
vt 0.253348 0.645142
vt 0.207208 0.574240
vt 0.272212 0.604163
vt 0.399549 0.156408
vt 0.459842 0.025430
vt 0.524846 0.055354
vt 0.464553 0.186332
vn 0.057266 0.949331 -0.309016
vn 0.048713 0.807549 -0.587785
vn 0.048713 0.807549 -0.587785
vn 0.057266 0.949331 -0.309016
vn 0.035392 0.586719 -0.809017
vn 0.035392 0.586719 -0.809017
vn 0.018607 0.308456 -0.951057
vn 0.018607 0.308456 -0.951057
vn -0.000000 -0.000000 -1.000000
vn -0.000000 -0.000000 -1.000000
vn -0.018607 -0.308456 -0.951056
vn -0.018607 -0.308456 -0.951056
vn -0.035392 -0.586719 -0.809017
vn -0.035392 -0.586719 -0.809017
vn -0.048713 -0.807549 -0.587785
vn -0.048713 -0.807549 -0.587785
vn -0.057266 -0.949331 -0.309017
vn -0.057266 -0.949331 -0.309017
vn -0.060213 -0.998186 0.000000
vn -0.060213 -0.998186 0.000000
vn -0.057266 -0.949331 0.309017
vn -0.057266 -0.949331 0.309017
vn -0.048713 -0.807549 0.587785
vn -0.048713 -0.807549 0.587785
vn -0.042577 -0.705824 0.707107
vn -0.042577 -0.705824 0.707107
vn 0.042577 0.705824 0.707107
vn 0.048713 0.807549 0.587785
vn 0.048713 0.807549 0.587785
vn 0.042577 0.705824 0.707107
vn 0.057266 0.949331 0.309017
vn 0.057266 0.949331 0.309017
vn 0.060213 0.998186 0.000001
vn 0.060213 0.998186 0.000001
vn 0.998186 -0.060213 0.000000
vn 0.998186 -0.060213 0.000000
vn 0.998186 -0.060213 0.000000
vn 0.998186 -0.060213 0.000000
vn 0.998186 -0.060213 0.000000
vn 0.998186 -0.060213 0.000000
vn 0.998186 -0.060213 0.000000
vn 0.998186 -0.060213 0.000000
vn 0.998186 -0.060213 0.000000
vn 0.998186 -0.060213 0.000000
vn 0.998186 -0.060213 0.000000
vn 0.998186 -0.060213 -0.000000
vn 0.998186 -0.060213 0.000000
vn 0.998186 -0.060213 0.000000
vn 0.998186 -0.060213 -0.000000
vn 0.998186 -0.060213 -0.000000
vn 0.998186 -0.060213 0.000000
vn 0.998186 -0.060213 0.000000
vn -0.998186 0.060213 0.000000
vn -0.998186 0.060213 0.000000
vn -0.998186 0.060213 0.000000
vn -0.998186 0.060213 0.000000
vn -0.998186 0.060213 0.000000
vn -0.998186 0.060213 0.000000
vn -0.998186 0.060213 0.000000
vn -0.998186 0.060213 0.000000
vn -0.998186 0.060213 0.000000
vn -0.998186 0.060213 0.000000
vn -0.998186 0.060213 -0.000000
vn -0.998186 0.060213 -0.000000
vn -0.998186 0.060213 0.000000
vn -0.998186 0.060213 0.000000
vn -0.998186 0.060213 -0.000000
vn -0.998186 0.060213 -0.000000
vn -0.998186 0.060213 0.000000
vn -0.998186 0.060213 0.000000
vn 0.000000 0.000000 1.000000
vn 0.000000 0.000000 1.000000
vn -0.048713 -0.807549 0.587785
vn -0.048713 -0.807549 0.587785
vn 0.048713 0.807549 0.587785
vn 0.048713 0.807549 0.587785
s 1
g Ojo1
usemtl initialShadingGroup
f 1/1/1 2/2/2 19/3/3 18/4/4
f 2/2/2 3/5/5 20/6/6 19/3/3
f 3/5/5 4/61/7 21/62/8 20/6/6
f 4/61/7 5/63/9 22/64/10 21/62/8
f 5/63/9 6/65/11 23/66/12 22/64/10
f 6/65/11 7/21/13 24/22/14 23/66/12
f 7/21/13 8/15/15 25/18/16 24/22/14
f 8/15/15 9/16/17 26/17/18 25/18/16
f 9/16/17 10/19/19 27/20/20 26/17/18
f 10/19/19 11/23/21 28/24/22 27/20/20
f 11/23/21 12/25/23 29/26/24 28/24/22
f 12/25/23 13/27/25 30/28/26 29/26/24
f 14/13/27 15/11/28 32/12/29 31/14/30
f 15/11/28 16/9/31 33/10/32 32/12/29
f 16/9/31 17/7/33 34/8/34 33/10/32
f 17/7/33 1/1/1 18/4/4 34/8/34
s 3
f 2/29/35 1/30/36 35/31/37
f 3/33/38 2/29/35 35/31/37
f 4/35/39 3/33/38 35/31/37
f 5/37/40 4/35/39 35/31/37
f 6/39/41 5/37/40 35/31/37
f 7/40/42 6/39/41 35/31/37
f 8/41/43 7/40/42 35/31/37
f 9/42/44 8/41/43 35/31/37
f 10/43/45 9/42/44 35/31/37
f 11/23/46 10/43/45 35/31/37
f 12/25/47 11/23/46 35/31/37
f 13/44/48 12/25/47 35/31/37
f 15/36/49 14/38/50 35/31/37
f 16/34/51 15/36/49 35/31/37
f 17/32/52 16/34/51 35/31/37
f 1/30/36 17/32/52 35/31/37
s 5
f 18/45/53 19/46/54 36/47/55
f 19/46/54 20/48/56 36/47/55
f 20/48/56 21/50/57 36/47/55
f 21/50/57 22/52/58 36/47/55
f 22/52/58 23/54/59 36/47/55
f 23/54/59 24/56/60 36/47/55
f 24/56/60 25/57/61 36/47/55
f 25/57/61 26/58/62 36/47/55
f 26/58/62 27/59/63 36/47/55
f 27/59/63 28/24/64 36/47/55
f 28/24/64 29/26/65 36/47/55
f 29/26/65 30/60/66 36/47/55
f 31/55/67 32/53/68 36/47/55
f 32/53/68 33/51/69 36/47/55
f 33/51/69 34/49/70 36/47/55
f 34/49/70 18/45/53 36/47/55
s 7
f 36/70/71 35/67/72 14/68/73 31/69/74
f 30/28/75 13/27/76 35/67/72 36/70/71
